<mxfile host="Electron" agent="Mozilla/5.0 (Windows NT 10.0; Win64; x64) AppleWebKit/537.36 (KHTML, like Gecko) draw.io/24.7.5 Chrome/126.0.6478.183 Electron/31.3.0 Safari/537.36" version="24.7.5">
  <diagram id="C5RBs43oDa-KdzZeNtuy" name="Page-1">
    <mxGraphModel dx="880" dy="532" grid="1" gridSize="10" guides="1" tooltips="1" connect="1" arrows="1" fold="1" page="1" pageScale="1" pageWidth="827" pageHeight="1169" math="0" shadow="0">
      <root>
        <mxCell id="WIyWlLk6GJQsqaUBKTNV-0" />
        <mxCell id="WIyWlLk6GJQsqaUBKTNV-1" parent="WIyWlLk6GJQsqaUBKTNV-0" />
        <mxCell id="fNCk7JQMXKDNMTydPqRq-0" value="Linear_equations" style="swimlane;fontStyle=1;align=center;verticalAlign=top;childLayout=stackLayout;horizontal=1;startSize=26;horizontalStack=0;resizeParent=1;resizeParentMax=0;resizeLast=0;collapsible=1;marginBottom=0;whiteSpace=wrap;html=1;" parent="WIyWlLk6GJQsqaUBKTNV-1" vertex="1">
          <mxGeometry x="645" y="90" width="350" height="180" as="geometry" />
        </mxCell>
        <mxCell id="fNCk7JQMXKDNMTydPqRq-1" value="# equations_num : int&lt;div&gt;# equations : vector&amp;lt;string&amp;gt;&lt;/div&gt;&lt;div&gt;# modified_equations : vector&amp;lt;string&amp;gt;&lt;/div&gt;" style="text;strokeColor=none;fillColor=none;align=left;verticalAlign=top;spacingLeft=4;spacingRight=4;overflow=hidden;rotatable=0;points=[[0,0.5],[1,0.5]];portConstraint=eastwest;whiteSpace=wrap;html=1;" parent="fNCk7JQMXKDNMTydPqRq-0" vertex="1">
          <mxGeometry y="26" width="350" height="74" as="geometry" />
        </mxCell>
        <mxCell id="fNCk7JQMXKDNMTydPqRq-2" value="" style="line;strokeWidth=1;fillColor=none;align=left;verticalAlign=middle;spacingTop=-1;spacingLeft=3;spacingRight=3;rotatable=0;labelPosition=right;points=[];portConstraint=eastwest;strokeColor=inherit;" parent="fNCk7JQMXKDNMTydPqRq-0" vertex="1">
          <mxGeometry y="100" width="350" height="8" as="geometry" />
        </mxCell>
        <mxCell id="fNCk7JQMXKDNMTydPqRq-3" value="&lt;div&gt;+ set_number_of_equations ( _eq_num: int )&lt;/div&gt;&lt;div&gt;+ get_number_of_Equations ( ) : int&lt;br&gt;&lt;div&gt;+ set_equation ( _equations : vector&amp;lt;string&amp;gt; )&lt;/div&gt;&lt;/div&gt;" style="text;strokeColor=none;fillColor=none;align=left;verticalAlign=top;spacingLeft=4;spacingRight=4;overflow=hidden;rotatable=0;points=[[0,0.5],[1,0.5]];portConstraint=eastwest;whiteSpace=wrap;html=1;" parent="fNCk7JQMXKDNMTydPqRq-0" vertex="1">
          <mxGeometry y="108" width="350" height="72" as="geometry" />
        </mxCell>
        <mxCell id="fNCk7JQMXKDNMTydPqRq-8" value="Linear_equations_commands" style="swimlane;fontStyle=1;align=center;verticalAlign=top;childLayout=stackLayout;horizontal=1;startSize=26;horizontalStack=0;resizeParent=1;resizeParentMax=0;resizeLast=0;collapsible=1;marginBottom=0;whiteSpace=wrap;html=1;" parent="WIyWlLk6GJQsqaUBKTNV-1" vertex="1">
          <mxGeometry x="70" y="90" width="310" height="194" as="geometry" />
        </mxCell>
        <mxCell id="fNCk7JQMXKDNMTydPqRq-10" value="" style="line;strokeWidth=1;fillColor=none;align=left;verticalAlign=middle;spacingTop=-1;spacingLeft=3;spacingRight=3;rotatable=0;labelPosition=right;points=[];portConstraint=eastwest;strokeColor=inherit;" parent="fNCk7JQMXKDNMTydPqRq-8" vertex="1">
          <mxGeometry y="26" width="310" height="8" as="geometry" />
        </mxCell>
        <mxCell id="fNCk7JQMXKDNMTydPqRq-11" value="+ num_vars ( ) : int&lt;div&gt;+ equation ( eq_num : int ) : string&lt;/div&gt;&lt;div&gt;+ column ( var_name : string ) : vector&amp;lt;int&amp;gt;&lt;/div&gt;&lt;div&gt;+ add ( eq1 : int , eq2 : int ) : string&lt;/div&gt;&lt;div&gt;+ subtract ( eq1 : int , eq2 :int ) : string&lt;/div&gt;&lt;div&gt;+ substitute ( var_name : string , aq1 : int , eq2 : int )&lt;/div&gt;&lt;div&gt;+ D ( ) : array [int] [int]&lt;/div&gt;&lt;div&gt;+ D_var ( eq_num : int ) : array [int] [int]&lt;/div&gt;&lt;div&gt;+ D_value ( ) : int&lt;/div&gt;&lt;div&gt;+ solve ( ) : vector&amp;nbsp;&lt;/div&gt;" style="text;strokeColor=none;fillColor=none;align=left;verticalAlign=top;spacingLeft=4;spacingRight=4;overflow=hidden;rotatable=0;points=[[0,0.5],[1,0.5]];portConstraint=eastwest;whiteSpace=wrap;html=1;" parent="fNCk7JQMXKDNMTydPqRq-8" vertex="1">
          <mxGeometry y="34" width="310" height="160" as="geometry" />
        </mxCell>
        <mxCell id="fNCk7JQMXKDNMTydPqRq-12" value="" style="endArrow=block;endSize=16;endFill=0;html=1;rounded=0;entryX=0.003;entryY=0.117;entryDx=0;entryDy=0;entryPerimeter=0;" parent="WIyWlLk6GJQsqaUBKTNV-1" target="fNCk7JQMXKDNMTydPqRq-0" edge="1">
          <mxGeometry width="160" relative="1" as="geometry">
            <mxPoint x="380" y="111" as="sourcePoint" />
            <mxPoint x="530" y="110" as="targetPoint" />
          </mxGeometry>
        </mxCell>
        <mxCell id="8ReBUt3Qec5zaFfD6OJj-0" value="Equation_modify" style="swimlane;fontStyle=1;align=center;verticalAlign=top;childLayout=stackLayout;horizontal=1;startSize=26;horizontalStack=0;resizeParent=1;resizeParentMax=0;resizeLast=0;collapsible=1;marginBottom=0;whiteSpace=wrap;html=1;" parent="WIyWlLk6GJQsqaUBKTNV-1" vertex="1">
          <mxGeometry x="551" y="401" width="585" height="200" as="geometry" />
        </mxCell>
        <mxCell id="8ReBUt3Qec5zaFfD6OJj-1" value="- coefficients : vector&amp;lt;int&amp;gt;&lt;div&gt;- variables : vector&amp;lt;string&amp;gt;&lt;/div&gt;&lt;div&gt;- constant : int&lt;/div&gt;&lt;div&gt;- equations : vector&amp;lt;string&amp;gt;&lt;/div&gt;&lt;div&gt;- modify_equatiions : vector&amp;lt;string&amp;gt;&lt;/div&gt;" style="text;strokeColor=none;fillColor=none;align=left;verticalAlign=top;spacingLeft=4;spacingRight=4;overflow=hidden;rotatable=0;points=[[0,0.5],[1,0.5]];portConstraint=eastwest;whiteSpace=wrap;html=1;" parent="8ReBUt3Qec5zaFfD6OJj-0" vertex="1">
          <mxGeometry y="26" width="585" height="84" as="geometry" />
        </mxCell>
        <mxCell id="8ReBUt3Qec5zaFfD6OJj-2" value="" style="line;strokeWidth=1;fillColor=none;align=left;verticalAlign=middle;spacingTop=-1;spacingLeft=3;spacingRight=3;rotatable=0;labelPosition=right;points=[];portConstraint=eastwest;strokeColor=inherit;" parent="8ReBUt3Qec5zaFfD6OJj-0" vertex="1">
          <mxGeometry y="110" width="585" height="8" as="geometry" />
        </mxCell>
        <mxCell id="8ReBUt3Qec5zaFfD6OJj-3" value="+ Equation_modify(equations : vector&amp;lt;string&amp;gt;)&lt;div&gt;+ modify_all_equations ( ) : vector&amp;lt;string&amp;gt;&lt;/div&gt;&lt;div&gt;+ divide_the_equation( equation : string ) : void&lt;/div&gt;&lt;div&gt;+ format_new_equation ( coefficiets : vector&amp;lt;int&amp;gt;, variables : vector&amp;lt;string&amp;gt;, constant : int ) : vector &amp;lt;string&amp;gt;&amp;nbsp;&lt;/div&gt;" style="text;strokeColor=none;fillColor=none;align=left;verticalAlign=top;spacingLeft=4;spacingRight=4;overflow=hidden;rotatable=0;points=[[0,0.5],[1,0.5]];portConstraint=eastwest;whiteSpace=wrap;html=1;" parent="8ReBUt3Qec5zaFfD6OJj-0" vertex="1">
          <mxGeometry y="118" width="585" height="82" as="geometry" />
        </mxCell>
        <mxCell id="8ReBUt3Qec5zaFfD6OJj-7" value="" style="endArrow=open;html=1;endSize=12;startArrow=diamondThin;startSize=14;startFill=1;edgeStyle=orthogonalEdgeStyle;align=left;verticalAlign=bottom;rounded=0;exitX=0.457;exitY=1;exitDx=0;exitDy=0;exitPerimeter=0;" parent="WIyWlLk6GJQsqaUBKTNV-1" edge="1">
          <mxGeometry x="-1" y="3" relative="1" as="geometry">
            <mxPoint x="823.95" y="270" as="sourcePoint" />
            <mxPoint x="824" y="400" as="targetPoint" />
          </mxGeometry>
        </mxCell>
        <mxCell id="8ReBUt3Qec5zaFfD6OJj-8" value="1 .. *" style="text;align=center;fontStyle=1;verticalAlign=middle;spacingLeft=3;spacingRight=3;strokeColor=none;rotatable=0;points=[[0,0.5],[1,0.5]];portConstraint=eastwest;html=1;" parent="WIyWlLk6GJQsqaUBKTNV-1" vertex="1">
          <mxGeometry x="804.5" y="380" width="80" height="26" as="geometry" />
        </mxCell>
        <mxCell id="8ReBUt3Qec5zaFfD6OJj-9" value="Gaussian_elimination" style="swimlane;fontStyle=1;align=center;verticalAlign=top;childLayout=stackLayout;horizontal=1;startSize=26;horizontalStack=0;resizeParent=1;resizeParentMax=0;resizeLast=0;collapsible=1;marginBottom=0;whiteSpace=wrap;html=1;" parent="WIyWlLk6GJQsqaUBKTNV-1" vertex="1">
          <mxGeometry x="70" y="400" width="380" height="160" as="geometry" />
        </mxCell>
        <mxCell id="8ReBUt3Qec5zaFfD6OJj-10" value="- equations : vector &amp;lt;strinng&amp;gt;&lt;div&gt;- matrix : vector &amp;lt; vector &amp;lt;float&amp;gt; &amp;gt;&lt;/div&gt;" style="text;strokeColor=none;fillColor=none;align=left;verticalAlign=top;spacingLeft=4;spacingRight=4;overflow=hidden;rotatable=0;points=[[0,0.5],[1,0.5]];portConstraint=eastwest;whiteSpace=wrap;html=1;" parent="8ReBUt3Qec5zaFfD6OJj-9" vertex="1">
          <mxGeometry y="26" width="380" height="44" as="geometry" />
        </mxCell>
        <mxCell id="8ReBUt3Qec5zaFfD6OJj-11" value="" style="line;strokeWidth=1;fillColor=none;align=left;verticalAlign=middle;spacingTop=-1;spacingLeft=3;spacingRight=3;rotatable=0;labelPosition=right;points=[];portConstraint=eastwest;strokeColor=inherit;" parent="8ReBUt3Qec5zaFfD6OJj-9" vertex="1">
          <mxGeometry y="70" width="380" height="8" as="geometry" />
        </mxCell>
        <mxCell id="8ReBUt3Qec5zaFfD6OJj-12" value="&lt;div style=&quot;&quot;&gt;&lt;span style=&quot;background-color: initial;&quot;&gt;+ Gaussian_elimination ( modified_equations : vector&amp;lt;string&amp;gt; )&lt;/span&gt;&lt;/div&gt;&lt;div style=&quot;&quot;&gt;&lt;span style=&quot;background-color: initial;&quot;&gt;+ solve ( ) : vector &amp;lt; float &amp;gt;&amp;nbsp;&lt;/span&gt;&lt;/div&gt;&lt;div style=&quot;&quot;&gt;+ parse_equations_into_matrix ( ) : void&lt;/div&gt;&lt;div style=&quot;&quot;&gt;+ gaussian_elimination_slove ( ) : vector &amp;lt; foat &amp;gt;&amp;nbsp; &amp;nbsp;&lt;/div&gt;&lt;div style=&quot;text-align: center;&quot;&gt;&lt;span style=&quot;background-color: initial;&quot;&gt;&lt;b&gt;&lt;br&gt;&lt;/b&gt;&lt;/span&gt;&lt;/div&gt;" style="text;strokeColor=none;fillColor=none;align=left;verticalAlign=top;spacingLeft=4;spacingRight=4;overflow=hidden;rotatable=0;points=[[0,0.5],[1,0.5]];portConstraint=eastwest;whiteSpace=wrap;html=1;" parent="8ReBUt3Qec5zaFfD6OJj-9" vertex="1">
          <mxGeometry y="78" width="380" height="82" as="geometry" />
        </mxCell>
        <mxCell id="7gchDzdrAnA98KtLtla0-0" value="1" style="text;align=center;fontStyle=1;verticalAlign=middle;spacingLeft=3;spacingRight=3;strokeColor=none;rotatable=0;points=[[0,0.5],[1,0.5]];portConstraint=eastwest;html=1;" parent="WIyWlLk6GJQsqaUBKTNV-1" vertex="1">
          <mxGeometry x="797" y="268" width="80" height="26" as="geometry" />
        </mxCell>
        <mxCell id="7gchDzdrAnA98KtLtla0-1" value="1 .. *" style="text;align=center;fontStyle=1;verticalAlign=middle;spacingLeft=3;spacingRight=3;strokeColor=none;rotatable=0;points=[[0,0.5],[1,0.5]];portConstraint=eastwest;html=1;" parent="WIyWlLk6GJQsqaUBKTNV-1" vertex="1">
          <mxGeometry x="215" y="280" width="80" height="26" as="geometry" />
        </mxCell>
        <mxCell id="7gchDzdrAnA98KtLtla0-2" value="0 .. *" style="text;align=center;fontStyle=1;verticalAlign=middle;spacingLeft=3;spacingRight=3;strokeColor=none;rotatable=0;points=[[0,0.5],[1,0.5]];portConstraint=eastwest;html=1;" parent="WIyWlLk6GJQsqaUBKTNV-1" vertex="1">
          <mxGeometry x="223" y="378" width="80" height="26" as="geometry" />
        </mxCell>
        <mxCell id="_aHZePFrR2pOFun-yuhA-0" value="" style="endArrow=open;endFill=1;endSize=12;html=1;rounded=0;" edge="1" parent="WIyWlLk6GJQsqaUBKTNV-1">
          <mxGeometry width="160" relative="1" as="geometry">
            <mxPoint x="240" y="285" as="sourcePoint" />
            <mxPoint x="240" y="400" as="targetPoint" />
          </mxGeometry>
        </mxCell>
      </root>
    </mxGraphModel>
  </diagram>
</mxfile>
